<mxfile host="app.diagrams.net" agent="Mozilla/5.0 (Windows NT 10.0; Win64; x64) AppleWebKit/537.36 (KHTML, like Gecko) Chrome/134.0.0.0 Safari/537.36" version="26.2.9">
  <diagram id="C5RBs43oDa-KdzZeNtuy" name="Page-1">
    <mxGraphModel dx="1043" dy="670" grid="1" gridSize="9" guides="1" tooltips="1" connect="1" arrows="1" fold="1" page="1" pageScale="1" pageWidth="583" pageHeight="827" math="0" shadow="0">
      <root>
        <mxCell id="WIyWlLk6GJQsqaUBKTNV-0" />
        <mxCell id="WIyWlLk6GJQsqaUBKTNV-1" parent="WIyWlLk6GJQsqaUBKTNV-0" />
        <mxCell id="gf65TOf0IDrILVoOI4ct-1" value="Start" style="ellipse;whiteSpace=wrap;html=1;" parent="WIyWlLk6GJQsqaUBKTNV-1" vertex="1">
          <mxGeometry x="550" y="10" width="80" height="40" as="geometry" />
        </mxCell>
        <mxCell id="gf65TOf0IDrILVoOI4ct-2" value="" style="endArrow=classic;html=1;rounded=0;exitX=0.5;exitY=1;exitDx=0;exitDy=0;" parent="WIyWlLk6GJQsqaUBKTNV-1" source="gf65TOf0IDrILVoOI4ct-1" edge="1">
          <mxGeometry width="50" height="50" relative="1" as="geometry">
            <mxPoint x="590" y="350" as="sourcePoint" />
            <mxPoint x="590" y="90" as="targetPoint" />
          </mxGeometry>
        </mxCell>
        <mxCell id="gf65TOf0IDrILVoOI4ct-3" value="User Enters Search Criteria" style="rounded=1;whiteSpace=wrap;html=1;" parent="WIyWlLk6GJQsqaUBKTNV-1" vertex="1">
          <mxGeometry x="490" y="90" width="200" height="40" as="geometry" />
        </mxCell>
        <mxCell id="gf65TOf0IDrILVoOI4ct-4" value="" style="endArrow=classic;html=1;rounded=0;" parent="WIyWlLk6GJQsqaUBKTNV-1" edge="1">
          <mxGeometry width="50" height="50" relative="1" as="geometry">
            <mxPoint x="490" y="117" as="sourcePoint" />
            <mxPoint x="424" y="210" as="targetPoint" />
            <Array as="points">
              <mxPoint x="424" y="117" />
            </Array>
          </mxGeometry>
        </mxCell>
        <mxCell id="gf65TOf0IDrILVoOI4ct-6" value="User Selects Optional Filters" style="rounded=1;whiteSpace=wrap;html=1;" parent="WIyWlLk6GJQsqaUBKTNV-1" vertex="1">
          <mxGeometry x="330" y="210" width="170" height="40" as="geometry" />
        </mxCell>
        <mxCell id="gf65TOf0IDrILVoOI4ct-7" value="" style="endArrow=classic;html=1;rounded=0;exitX=0.5;exitY=1;exitDx=0;exitDy=0;" parent="WIyWlLk6GJQsqaUBKTNV-1" source="gf65TOf0IDrILVoOI4ct-6" edge="1">
          <mxGeometry width="50" height="50" relative="1" as="geometry">
            <mxPoint x="590" y="350" as="sourcePoint" />
            <mxPoint x="415" y="320" as="targetPoint" />
          </mxGeometry>
        </mxCell>
        <mxCell id="gf65TOf0IDrILVoOI4ct-8" value="Validate Input" style="rhombus;whiteSpace=wrap;html=1;" parent="WIyWlLk6GJQsqaUBKTNV-1" vertex="1">
          <mxGeometry x="357.5" y="320" width="115" height="90" as="geometry" />
        </mxCell>
        <mxCell id="gf65TOf0IDrILVoOI4ct-11" value="&lt;font style=&quot;font-size: 14px;&quot;&gt;Valid&lt;/font&gt;" style="text;html=1;align=center;verticalAlign=middle;resizable=0;points=[];autosize=1;strokeColor=none;fillColor=none;" parent="WIyWlLk6GJQsqaUBKTNV-1" vertex="1">
          <mxGeometry x="330" y="430" width="50" height="30" as="geometry" />
        </mxCell>
        <mxCell id="gf65TOf0IDrILVoOI4ct-13" value="Send search request to database" style="rounded=1;whiteSpace=wrap;html=1;" parent="WIyWlLk6GJQsqaUBKTNV-1" vertex="1">
          <mxGeometry x="277.5" y="490" width="195" height="30" as="geometry" />
        </mxCell>
        <mxCell id="gf65TOf0IDrILVoOI4ct-14" value="" style="endArrow=classic;html=1;rounded=0;exitX=0.5;exitY=1;exitDx=0;exitDy=0;" parent="WIyWlLk6GJQsqaUBKTNV-1" source="gf65TOf0IDrILVoOI4ct-13" edge="1">
          <mxGeometry width="50" height="50" relative="1" as="geometry">
            <mxPoint x="590" y="550" as="sourcePoint" />
            <mxPoint x="375" y="560" as="targetPoint" />
          </mxGeometry>
        </mxCell>
        <mxCell id="gf65TOf0IDrILVoOI4ct-15" value="Process search results" style="rounded=1;whiteSpace=wrap;html=1;" parent="WIyWlLk6GJQsqaUBKTNV-1" vertex="1">
          <mxGeometry x="300" y="560" width="145" height="30" as="geometry" />
        </mxCell>
        <mxCell id="gf65TOf0IDrILVoOI4ct-16" value="Results found?" style="rhombus;whiteSpace=wrap;html=1;" parent="WIyWlLk6GJQsqaUBKTNV-1" vertex="1">
          <mxGeometry x="320" y="630" width="100" height="90" as="geometry" />
        </mxCell>
        <mxCell id="gf65TOf0IDrILVoOI4ct-17" value="" style="endArrow=classic;html=1;rounded=0;exitX=0.5;exitY=1;exitDx=0;exitDy=0;" parent="WIyWlLk6GJQsqaUBKTNV-1" source="gf65TOf0IDrILVoOI4ct-15" target="gf65TOf0IDrILVoOI4ct-16" edge="1">
          <mxGeometry width="50" height="50" relative="1" as="geometry">
            <mxPoint x="373" y="592" as="sourcePoint" />
            <mxPoint x="420" y="650" as="targetPoint" />
          </mxGeometry>
        </mxCell>
        <mxCell id="gf65TOf0IDrILVoOI4ct-18" value="" style="endArrow=none;html=1;rounded=0;exitX=0.5;exitY=1;exitDx=0;exitDy=0;" parent="WIyWlLk6GJQsqaUBKTNV-1" source="gf65TOf0IDrILVoOI4ct-16" edge="1">
          <mxGeometry width="50" height="50" relative="1" as="geometry">
            <mxPoint x="590" y="850" as="sourcePoint" />
            <mxPoint x="370" y="750" as="targetPoint" />
          </mxGeometry>
        </mxCell>
        <mxCell id="gf65TOf0IDrILVoOI4ct-19" value="&lt;font style=&quot;font-size: 14px;&quot;&gt;NO&lt;/font&gt;" style="text;html=1;align=center;verticalAlign=middle;resizable=0;points=[];autosize=1;strokeColor=none;fillColor=none;" parent="WIyWlLk6GJQsqaUBKTNV-1" vertex="1">
          <mxGeometry x="348" y="752" width="45" height="27" as="geometry" />
        </mxCell>
        <mxCell id="gf65TOf0IDrILVoOI4ct-20" value="" style="endArrow=classic;html=1;rounded=0;" parent="WIyWlLk6GJQsqaUBKTNV-1" edge="1">
          <mxGeometry width="50" height="50" relative="1" as="geometry">
            <mxPoint x="370" y="770" as="sourcePoint" />
            <mxPoint x="370" y="820" as="targetPoint" />
            <Array as="points">
              <mxPoint x="370" y="800" />
            </Array>
          </mxGeometry>
        </mxCell>
        <mxCell id="gf65TOf0IDrILVoOI4ct-21" value="Display No Results Message" style="rounded=1;whiteSpace=wrap;html=1;" parent="WIyWlLk6GJQsqaUBKTNV-1" vertex="1">
          <mxGeometry x="290" y="820" width="160" height="30" as="geometry" />
        </mxCell>
        <mxCell id="gf65TOf0IDrILVoOI4ct-22" value="" style="endArrow=classic;html=1;rounded=0;exitX=0.5;exitY=1;exitDx=0;exitDy=0;" parent="WIyWlLk6GJQsqaUBKTNV-1" source="gf65TOf0IDrILVoOI4ct-21" edge="1">
          <mxGeometry width="50" height="50" relative="1" as="geometry">
            <mxPoint x="380" y="860" as="sourcePoint" />
            <mxPoint x="490" y="960" as="targetPoint" />
            <Array as="points">
              <mxPoint x="369" y="909" />
              <mxPoint x="490" y="909" />
            </Array>
          </mxGeometry>
        </mxCell>
        <mxCell id="gf65TOf0IDrILVoOI4ct-24" value="Suggest Alternative Searches" style="rounded=1;whiteSpace=wrap;html=1;" parent="WIyWlLk6GJQsqaUBKTNV-1" vertex="1">
          <mxGeometry x="445" y="960" width="175" height="30" as="geometry" />
        </mxCell>
        <mxCell id="gf65TOf0IDrILVoOI4ct-26" value="" style="endArrow=none;html=1;rounded=0;" parent="WIyWlLk6GJQsqaUBKTNV-1" edge="1">
          <mxGeometry width="50" height="50" relative="1" as="geometry">
            <mxPoint x="432" y="396" as="sourcePoint" />
            <mxPoint x="540" y="396" as="targetPoint" />
          </mxGeometry>
        </mxCell>
        <mxCell id="gf65TOf0IDrILVoOI4ct-27" value="&lt;font style=&quot;font-size: 14px;&quot;&gt;Invalid&lt;/font&gt;" style="text;html=1;align=center;verticalAlign=middle;resizable=0;points=[];autosize=1;strokeColor=none;fillColor=none;" parent="WIyWlLk6GJQsqaUBKTNV-1" vertex="1">
          <mxGeometry x="504" y="423" width="60" height="30" as="geometry" />
        </mxCell>
        <mxCell id="gf65TOf0IDrILVoOI4ct-28" value="" style="endArrow=classic;html=1;rounded=0;" parent="WIyWlLk6GJQsqaUBKTNV-1" edge="1">
          <mxGeometry width="50" height="50" relative="1" as="geometry">
            <mxPoint x="540" y="450" as="sourcePoint" />
            <mxPoint x="540" y="477" as="targetPoint" />
          </mxGeometry>
        </mxCell>
        <mxCell id="gf65TOf0IDrILVoOI4ct-29" value="Display Error Message" style="rounded=1;whiteSpace=wrap;html=1;" parent="WIyWlLk6GJQsqaUBKTNV-1" vertex="1">
          <mxGeometry x="530" y="480" width="160" height="30" as="geometry" />
        </mxCell>
        <mxCell id="gf65TOf0IDrILVoOI4ct-177" value="" style="curved=1;endArrow=classic;html=1;rounded=0;entryX=0.466;entryY=1;entryDx=0;entryDy=0;entryPerimeter=0;" parent="WIyWlLk6GJQsqaUBKTNV-1" target="gf65TOf0IDrILVoOI4ct-3" edge="1">
          <mxGeometry width="50" height="50" relative="1" as="geometry">
            <mxPoint x="585" y="477" as="sourcePoint" />
            <mxPoint x="585" y="135" as="targetPoint" />
            <Array as="points">
              <mxPoint x="585" y="234" />
            </Array>
          </mxGeometry>
        </mxCell>
        <mxCell id="gf65TOf0IDrILVoOI4ct-180" value="Display Search Results" style="rounded=1;whiteSpace=wrap;html=1;" parent="WIyWlLk6GJQsqaUBKTNV-1" vertex="1">
          <mxGeometry x="738" y="780" width="135" height="30" as="geometry" />
        </mxCell>
        <mxCell id="gf65TOf0IDrILVoOI4ct-181" value="" style="endArrow=classic;html=1;rounded=0;exitX=0.5;exitY=1;exitDx=0;exitDy=0;entryX=0.5;entryY=0;entryDx=0;entryDy=0;" parent="WIyWlLk6GJQsqaUBKTNV-1" source="gf65TOf0IDrILVoOI4ct-180" target="gf65TOf0IDrILVoOI4ct-182" edge="1">
          <mxGeometry width="50" height="50" relative="1" as="geometry">
            <mxPoint x="648" y="896" as="sourcePoint" />
            <mxPoint x="798" y="846" as="targetPoint" />
          </mxGeometry>
        </mxCell>
        <mxCell id="gf65TOf0IDrILVoOI4ct-182" value="User Selects a meal?" style="rhombus;whiteSpace=wrap;html=1;" parent="WIyWlLk6GJQsqaUBKTNV-1" vertex="1">
          <mxGeometry x="738" y="850" width="135" height="113" as="geometry" />
        </mxCell>
        <mxCell id="gf65TOf0IDrILVoOI4ct-186" value="" style="endArrow=none;html=1;rounded=0;exitX=1;exitY=1;exitDx=0;exitDy=0;" parent="WIyWlLk6GJQsqaUBKTNV-1" source="gf65TOf0IDrILVoOI4ct-182" edge="1">
          <mxGeometry width="50" height="50" relative="1" as="geometry">
            <mxPoint x="765" y="1103" as="sourcePoint" />
            <mxPoint x="882" y="936" as="targetPoint" />
          </mxGeometry>
        </mxCell>
        <mxCell id="gf65TOf0IDrILVoOI4ct-187" value="&lt;font style=&quot;font-size: 14px;&quot;&gt;Yes&lt;/font&gt;" style="text;html=1;align=center;verticalAlign=middle;resizable=0;points=[];autosize=1;strokeColor=none;fillColor=none;" parent="WIyWlLk6GJQsqaUBKTNV-1" vertex="1">
          <mxGeometry x="864.5" y="972" width="45" height="27" as="geometry" />
        </mxCell>
        <mxCell id="gf65TOf0IDrILVoOI4ct-188" value="" style="endArrow=classic;html=1;rounded=0;entryX=0.36;entryY=0.006;entryDx=0;entryDy=0;entryPerimeter=0;" parent="WIyWlLk6GJQsqaUBKTNV-1" edge="1">
          <mxGeometry width="50" height="50" relative="1" as="geometry">
            <mxPoint x="886.5" y="995.78" as="sourcePoint" />
            <mxPoint x="886.8600000000001" y="1052.9959999999999" as="targetPoint" />
          </mxGeometry>
        </mxCell>
        <mxCell id="gf65TOf0IDrILVoOI4ct-189" value="Display Meal Details" style="rounded=1;whiteSpace=wrap;html=1;" parent="WIyWlLk6GJQsqaUBKTNV-1" vertex="1">
          <mxGeometry x="801" y="1053" width="126" height="36" as="geometry" />
        </mxCell>
        <mxCell id="gf65TOf0IDrILVoOI4ct-191" value="User action" style="rhombus;whiteSpace=wrap;html=1;" parent="WIyWlLk6GJQsqaUBKTNV-1" vertex="1">
          <mxGeometry x="847" y="1170" width="80" height="80" as="geometry" />
        </mxCell>
        <mxCell id="gf65TOf0IDrILVoOI4ct-196" value="" style="endArrow=none;html=1;rounded=0;exitX=0.852;exitY=0.657;exitDx=0;exitDy=0;exitPerimeter=0;" parent="WIyWlLk6GJQsqaUBKTNV-1" source="gf65TOf0IDrILVoOI4ct-191" target="gf65TOf0IDrILVoOI4ct-197" edge="1">
          <mxGeometry width="50" height="50" relative="1" as="geometry">
            <mxPoint x="954" y="1206" as="sourcePoint" />
            <mxPoint x="945" y="1251" as="targetPoint" />
            <Array as="points">
              <mxPoint x="973" y="1223" />
            </Array>
          </mxGeometry>
        </mxCell>
        <mxCell id="gf65TOf0IDrILVoOI4ct-197" value="&lt;font style=&quot;font-size: 14px;&quot;&gt;Save Meal&lt;/font&gt;" style="text;html=1;align=center;verticalAlign=middle;resizable=0;points=[];autosize=1;strokeColor=none;fillColor=none;" parent="WIyWlLk6GJQsqaUBKTNV-1" vertex="1">
          <mxGeometry x="927" y="1250" width="90" height="27" as="geometry" />
        </mxCell>
        <mxCell id="gf65TOf0IDrILVoOI4ct-199" value="Save to Favorites" style="rounded=1;whiteSpace=wrap;html=1;" parent="WIyWlLk6GJQsqaUBKTNV-1" vertex="1">
          <mxGeometry x="927" y="1314" width="120" height="27" as="geometry" />
        </mxCell>
        <mxCell id="gf65TOf0IDrILVoOI4ct-200" value="" style="endArrow=classic;html=1;rounded=0;exitX=0.5;exitY=1;exitDx=0;exitDy=0;" parent="WIyWlLk6GJQsqaUBKTNV-1" source="gf65TOf0IDrILVoOI4ct-199" target="gf65TOf0IDrILVoOI4ct-201" edge="1">
          <mxGeometry width="50" height="50" relative="1" as="geometry">
            <mxPoint x="900" y="1499" as="sourcePoint" />
            <mxPoint x="987" y="1404" as="targetPoint" />
          </mxGeometry>
        </mxCell>
        <mxCell id="gf65TOf0IDrILVoOI4ct-201" value="Display Confirmation" style="rounded=1;whiteSpace=wrap;html=1;" parent="WIyWlLk6GJQsqaUBKTNV-1" vertex="1">
          <mxGeometry x="924" y="1395" width="126" height="36" as="geometry" />
        </mxCell>
        <mxCell id="gf65TOf0IDrILVoOI4ct-202" value="" style="endArrow=none;html=1;rounded=0;entryX=0.162;entryY=0.687;entryDx=0;entryDy=0;entryPerimeter=0;" parent="WIyWlLk6GJQsqaUBKTNV-1" target="gf65TOf0IDrILVoOI4ct-191" edge="1">
          <mxGeometry width="50" height="50" relative="1" as="geometry">
            <mxPoint x="828" y="1377" as="sourcePoint" />
            <mxPoint x="846" y="1233" as="targetPoint" />
            <Array as="points">
              <mxPoint x="828" y="1225" />
            </Array>
          </mxGeometry>
        </mxCell>
        <mxCell id="gf65TOf0IDrILVoOI4ct-203" value="&lt;font style=&quot;font-size: 14px;&quot;&gt;Exit&lt;/font&gt;" style="text;html=1;align=center;verticalAlign=middle;resizable=0;points=[];autosize=1;strokeColor=none;fillColor=none;" parent="WIyWlLk6GJQsqaUBKTNV-1" vertex="1">
          <mxGeometry x="802" y="1377" width="45" height="27" as="geometry" />
        </mxCell>
        <mxCell id="gf65TOf0IDrILVoOI4ct-205" value="" style="endArrow=none;html=1;rounded=0;entryX=0;entryY=1;entryDx=0;entryDy=0;" parent="WIyWlLk6GJQsqaUBKTNV-1" target="gf65TOf0IDrILVoOI4ct-182" edge="1">
          <mxGeometry width="50" height="50" relative="1" as="geometry">
            <mxPoint x="720" y="1224" as="sourcePoint" />
            <mxPoint x="756" y="990" as="targetPoint" />
            <Array as="points">
              <mxPoint x="720" y="936" />
            </Array>
          </mxGeometry>
        </mxCell>
        <mxCell id="gf65TOf0IDrILVoOI4ct-206" value="&lt;font style=&quot;font-size: 14px;&quot;&gt;No&lt;/font&gt;" style="text;html=1;align=center;verticalAlign=middle;resizable=0;points=[];autosize=1;strokeColor=none;fillColor=none;" parent="WIyWlLk6GJQsqaUBKTNV-1" vertex="1">
          <mxGeometry x="702" y="1227" width="36" height="27" as="geometry" />
        </mxCell>
        <mxCell id="gf65TOf0IDrILVoOI4ct-207" value="" style="endArrow=classic;html=1;rounded=0;" parent="WIyWlLk6GJQsqaUBKTNV-1" edge="1">
          <mxGeometry width="50" height="50" relative="1" as="geometry">
            <mxPoint x="720" y="1260" as="sourcePoint" />
            <mxPoint x="802" y="1539" as="targetPoint" />
            <Array as="points">
              <mxPoint x="720" y="1539" />
            </Array>
          </mxGeometry>
        </mxCell>
        <mxCell id="gf65TOf0IDrILVoOI4ct-208" value="" style="endArrow=classic;html=1;rounded=0;exitX=0.451;exitY=1.122;exitDx=0;exitDy=0;exitPerimeter=0;" parent="WIyWlLk6GJQsqaUBKTNV-1" source="gf65TOf0IDrILVoOI4ct-201" edge="1">
          <mxGeometry width="50" height="50" relative="1" as="geometry">
            <mxPoint x="774" y="1598" as="sourcePoint" />
            <mxPoint x="864" y="1539" as="targetPoint" />
            <Array as="points">
              <mxPoint x="981" y="1539" />
            </Array>
          </mxGeometry>
        </mxCell>
        <mxCell id="gf65TOf0IDrILVoOI4ct-209" value="End" style="ellipse;whiteSpace=wrap;html=1;" parent="WIyWlLk6GJQsqaUBKTNV-1" vertex="1">
          <mxGeometry x="801" y="1521" width="63" height="40" as="geometry" />
        </mxCell>
        <mxCell id="gf65TOf0IDrILVoOI4ct-210" value="" style="endArrow=none;html=1;rounded=0;exitX=1;exitY=0;exitDx=0;exitDy=0;" parent="WIyWlLk6GJQsqaUBKTNV-1" source="gf65TOf0IDrILVoOI4ct-191" edge="1">
          <mxGeometry width="50" height="50" relative="1" as="geometry">
            <mxPoint x="918" y="1188" as="sourcePoint" />
            <mxPoint x="1044" y="603" as="targetPoint" />
            <Array as="points">
              <mxPoint x="1044" y="1188" />
            </Array>
          </mxGeometry>
        </mxCell>
        <mxCell id="gf65TOf0IDrILVoOI4ct-211" value="&lt;font style=&quot;font-size: 14px;&quot;&gt;New Search&lt;/font&gt;" style="text;html=1;align=center;verticalAlign=middle;resizable=0;points=[];autosize=1;strokeColor=none;fillColor=none;" parent="WIyWlLk6GJQsqaUBKTNV-1" vertex="1">
          <mxGeometry x="993" y="576" width="99" height="27" as="geometry" />
        </mxCell>
        <mxCell id="gf65TOf0IDrILVoOI4ct-214" value="&lt;font style=&quot;font-size: 14px;&quot;&gt;Yes&lt;/font&gt;" style="text;html=1;align=center;verticalAlign=middle;resizable=0;points=[];autosize=1;strokeColor=none;fillColor=none;" parent="WIyWlLk6GJQsqaUBKTNV-1" vertex="1">
          <mxGeometry x="747" y="648" width="45" height="27" as="geometry" />
        </mxCell>
        <mxCell id="RK_CQbeDSwDvSBELLkF4-0" value="" style="endArrow=classic;html=1;rounded=0;exitX=0.491;exitY=0.889;exitDx=0;exitDy=0;exitPerimeter=0;entryX=0.382;entryY=0;entryDx=0;entryDy=0;entryPerimeter=0;" parent="WIyWlLk6GJQsqaUBKTNV-1" source="gf65TOf0IDrILVoOI4ct-197" target="gf65TOf0IDrILVoOI4ct-199" edge="1">
          <mxGeometry width="50" height="50" relative="1" as="geometry">
            <mxPoint x="558" y="1373" as="sourcePoint" />
            <mxPoint x="981" y="1305" as="targetPoint" />
          </mxGeometry>
        </mxCell>
        <mxCell id="RK_CQbeDSwDvSBELLkF4-1" value="" style="endArrow=classic;html=1;rounded=0;exitX=0.678;exitY=1.072;exitDx=0;exitDy=0;entryX=0.5;entryY=0;entryDx=0;entryDy=0;exitPerimeter=0;" parent="WIyWlLk6GJQsqaUBKTNV-1" source="gf65TOf0IDrILVoOI4ct-189" target="gf65TOf0IDrILVoOI4ct-191" edge="1">
          <mxGeometry width="50" height="50" relative="1" as="geometry">
            <mxPoint x="558" y="1175" as="sourcePoint" />
            <mxPoint x="864" y="1188" as="targetPoint" />
          </mxGeometry>
        </mxCell>
        <mxCell id="RK_CQbeDSwDvSBELLkF4-2" value="" style="endArrow=none;html=1;rounded=0;exitX=0.531;exitY=-0.133;exitDx=0;exitDy=0;exitPerimeter=0;" parent="WIyWlLk6GJQsqaUBKTNV-1" source="gf65TOf0IDrILVoOI4ct-211" edge="1">
          <mxGeometry width="50" height="50" relative="1" as="geometry">
            <mxPoint x="558" y="374" as="sourcePoint" />
            <mxPoint x="1043" y="108" as="targetPoint" />
          </mxGeometry>
        </mxCell>
        <mxCell id="RK_CQbeDSwDvSBELLkF4-3" value="" style="endArrow=classic;html=1;rounded=0;" parent="WIyWlLk6GJQsqaUBKTNV-1" target="gf65TOf0IDrILVoOI4ct-3" edge="1">
          <mxGeometry width="50" height="50" relative="1" as="geometry">
            <mxPoint x="1044" y="108" as="sourcePoint" />
            <mxPoint x="693" y="108" as="targetPoint" />
          </mxGeometry>
        </mxCell>
        <mxCell id="RK_CQbeDSwDvSBELLkF4-4" value="" style="endArrow=classic;html=1;rounded=0;exitX=0.596;exitY=1.133;exitDx=0;exitDy=0;exitPerimeter=0;entryX=0.5;entryY=0;entryDx=0;entryDy=0;" parent="WIyWlLk6GJQsqaUBKTNV-1" source="gf65TOf0IDrILVoOI4ct-203" target="gf65TOf0IDrILVoOI4ct-209" edge="1">
          <mxGeometry width="50" height="50" relative="1" as="geometry">
            <mxPoint x="819" y="1413" as="sourcePoint" />
            <mxPoint x="829" y="1512" as="targetPoint" />
          </mxGeometry>
        </mxCell>
        <mxCell id="RK_CQbeDSwDvSBELLkF4-6" value="" style="endArrow=none;html=1;rounded=0;" parent="WIyWlLk6GJQsqaUBKTNV-1" edge="1">
          <mxGeometry width="50" height="50" relative="1" as="geometry">
            <mxPoint x="585" y="954" as="sourcePoint" />
            <mxPoint x="585" y="612" as="targetPoint" />
          </mxGeometry>
        </mxCell>
        <mxCell id="RK_CQbeDSwDvSBELLkF4-7" value="" style="endArrow=none;html=1;rounded=0;" parent="WIyWlLk6GJQsqaUBKTNV-1" edge="1">
          <mxGeometry width="50" height="50" relative="1" as="geometry">
            <mxPoint x="585" y="612" as="sourcePoint" />
            <mxPoint x="864" y="612" as="targetPoint" />
          </mxGeometry>
        </mxCell>
        <mxCell id="RK_CQbeDSwDvSBELLkF4-8" value="" style="endArrow=none;html=1;rounded=0;" parent="WIyWlLk6GJQsqaUBKTNV-1" edge="1">
          <mxGeometry width="50" height="50" relative="1" as="geometry">
            <mxPoint x="864" y="612" as="sourcePoint" />
            <mxPoint x="864" y="252" as="targetPoint" />
          </mxGeometry>
        </mxCell>
        <mxCell id="RK_CQbeDSwDvSBELLkF4-9" value="" style="endArrow=none;html=1;rounded=0;" parent="WIyWlLk6GJQsqaUBKTNV-1" edge="1">
          <mxGeometry width="50" height="50" relative="1" as="geometry">
            <mxPoint x="648" y="252" as="sourcePoint" />
            <mxPoint x="864" y="252" as="targetPoint" />
          </mxGeometry>
        </mxCell>
        <mxCell id="RK_CQbeDSwDvSBELLkF4-10" value="" style="endArrow=classic;html=1;rounded=0;entryX=0.79;entryY=1;entryDx=0;entryDy=0;entryPerimeter=0;" parent="WIyWlLk6GJQsqaUBKTNV-1" target="gf65TOf0IDrILVoOI4ct-3" edge="1">
          <mxGeometry width="50" height="50" relative="1" as="geometry">
            <mxPoint x="648" y="252" as="sourcePoint" />
            <mxPoint x="648" y="135" as="targetPoint" />
          </mxGeometry>
        </mxCell>
        <mxCell id="RK_CQbeDSwDvSBELLkF4-11" value="" style="endArrow=none;html=1;rounded=0;" parent="WIyWlLk6GJQsqaUBKTNV-1" edge="1">
          <mxGeometry width="50" height="50" relative="1" as="geometry">
            <mxPoint x="414" y="684" as="sourcePoint" />
            <mxPoint x="792" y="684" as="targetPoint" />
          </mxGeometry>
        </mxCell>
        <mxCell id="RK_CQbeDSwDvSBELLkF4-12" value="" style="endArrow=classic;html=1;rounded=0;entryX=0.412;entryY=0.067;entryDx=0;entryDy=0;entryPerimeter=0;" parent="WIyWlLk6GJQsqaUBKTNV-1" target="gf65TOf0IDrILVoOI4ct-180" edge="1">
          <mxGeometry width="50" height="50" relative="1" as="geometry">
            <mxPoint x="792" y="684" as="sourcePoint" />
            <mxPoint x="792" y="774" as="targetPoint" />
          </mxGeometry>
        </mxCell>
        <mxCell id="RK_CQbeDSwDvSBELLkF4-15" value="" style="endArrow=none;html=1;rounded=0;exitX=0.342;exitY=0.849;exitDx=0;exitDy=0;exitPerimeter=0;" parent="WIyWlLk6GJQsqaUBKTNV-1" source="gf65TOf0IDrILVoOI4ct-8" edge="1">
          <mxGeometry width="50" height="50" relative="1" as="geometry">
            <mxPoint x="558" y="473" as="sourcePoint" />
            <mxPoint x="360" y="396" as="targetPoint" />
          </mxGeometry>
        </mxCell>
        <mxCell id="RK_CQbeDSwDvSBELLkF4-16" value="" style="endArrow=none;html=1;rounded=0;" parent="WIyWlLk6GJQsqaUBKTNV-1" edge="1">
          <mxGeometry width="50" height="50" relative="1" as="geometry">
            <mxPoint x="360" y="432" as="sourcePoint" />
            <mxPoint x="360" y="396" as="targetPoint" />
          </mxGeometry>
        </mxCell>
        <mxCell id="RK_CQbeDSwDvSBELLkF4-17" value="" style="endArrow=classic;html=1;rounded=0;" parent="WIyWlLk6GJQsqaUBKTNV-1" edge="1">
          <mxGeometry width="50" height="50" relative="1" as="geometry">
            <mxPoint x="360" y="459" as="sourcePoint" />
            <mxPoint x="360" y="486" as="targetPoint" />
          </mxGeometry>
        </mxCell>
        <mxCell id="RK_CQbeDSwDvSBELLkF4-18" value="" style="endArrow=none;html=1;rounded=0;" parent="WIyWlLk6GJQsqaUBKTNV-1" edge="1">
          <mxGeometry width="50" height="50" relative="1" as="geometry">
            <mxPoint x="540" y="396" as="sourcePoint" />
            <mxPoint x="540" y="423" as="targetPoint" />
          </mxGeometry>
        </mxCell>
        <mxCell id="RK_CQbeDSwDvSBELLkF4-20" value="" style="endArrow=none;html=1;rounded=0;exitX=0.416;exitY=-0.044;exitDx=0;exitDy=0;exitPerimeter=0;" parent="WIyWlLk6GJQsqaUBKTNV-1" source="gf65TOf0IDrILVoOI4ct-187" edge="1">
          <mxGeometry width="50" height="50" relative="1" as="geometry">
            <mxPoint x="558" y="1139" as="sourcePoint" />
            <mxPoint x="882" y="936" as="targetPoint" />
          </mxGeometry>
        </mxCell>
        <mxCell id="BeTaR9tlxxRSyz9e0a1V-0" value="&lt;font style=&quot;font-size: 22px;&quot;&gt;INGREDIENT INPUT&lt;/font&gt;" style="text;html=1;align=center;verticalAlign=middle;resizable=0;points=[];autosize=1;strokeColor=none;fillColor=none;" vertex="1" parent="WIyWlLk6GJQsqaUBKTNV-1">
          <mxGeometry x="43" y="1274" width="225" height="36" as="geometry" />
        </mxCell>
      </root>
    </mxGraphModel>
  </diagram>
</mxfile>
